<?xml version="1.0" encoding="UTF-8"?>
<!--Generator: Xara Designer (www.xara.com), SVG filter version: 6.6.0.1-->
<svg width="42.3pt" height="26.775pt" fill="none" fill-rule="evenodd" font-family="'Times New Roman'" font-size="16px" overflow="visible" stroke="#000000" stroke-linejoin="bevel" stroke-miterlimit="10" stroke-width=".501" style="font-variant-ligatures:none" version="1.1" viewBox="265.1 -254.7 42.3 26.775" xmlns="http://www.w3.org/2000/svg">
 <g transform="matrix(1 0 0 -1 -.047032 .1411)">
  <g id="Group" transform="translate(.094034 -6.5652)" fill="#7f9fff" fill-rule="nonzero" stroke="none" stroke-width=".534">
   <path d="m277.8 240.43h-4.862l-2.081 5.458h-1.38v-5.458h-4.381v14.271h7.455c1.645 0 2.923-0.385 3.832-1.155 0.91-0.77 1.365-1.786 1.365-3.048 0-0.822-0.168-1.549-0.502-2.18-0.335-0.63-1.011-1.186-2.029-1.667zm-8.323 8.51h1.872c0.55 0 0.993 0.115 1.328 0.345 0.334 0.23 0.501 0.569 0.501 1.015 0 0.913-0.561 1.369-1.683 1.369h-2.018z"/>
   <path d="m292.58 240.43h-4.862l-2.081 5.458h-1.38v-5.458h-4.381v14.271h7.455c1.645 0 2.923-0.385 3.832-1.155 0.91-0.77 1.365-1.786 1.365-3.048 0-0.822-0.168-1.549-0.502-2.18-0.335-0.63-1.011-1.186-2.029-1.667zm-8.323 8.51h1.872c0.55 0 0.993 0.115 1.328 0.345 0.334 0.23 0.501 0.569 0.501 1.015 0 0.913-0.561 1.369-1.683 1.369h-2.018z"/>
   <path d="m294.65 240.43v14.271h5.521c2.398 0 4.193-0.711 5.385-2.133 1.191-1.422 1.787-3.067 1.787-4.934 0-2.133-0.639-3.867-1.918-5.202s-2.94-2.002-4.982-2.002zm4.381 3.283h1.14c0.725 0 1.337 0.352 1.835 1.056s0.748 1.662 0.748 2.875c0 1.038-0.222 1.934-0.665 2.687-0.442 0.753-1.082 1.129-1.918 1.129h-1.14z"/>
  </g>
 </g>
</svg>
